<svg xmlns="http://www.w3.org/2000/svg" xmlns:xlink="http://www.w3.org/1999/xlink" viewBox="0 0 200 200" version="1.1" x="0px" y="0px"><g stroke="none" stroke-width="1" fill="none" fill-rule="evenodd" stroke-linecap="round" stroke-linejoin="round"><g transform="translate(1.000000, 1.000000)" stroke="#000000" stroke-width="2"><circle cx="23" cy="35" r="23"/><circle cx="23" cy="35" r="18"/><path d="M25.5,9.33 C27.4598401,8.1984858 28.415344,5.89169533 27.8296291,3.70577776 C27.2439143,1.51986019 25.2630284,-0.000127018922 23,-0.000127018922 C20.7369716,-0.000127018922 18.7560857,1.51986019 18.1703709,3.70577776 C17.584656,5.89169533 18.5401599,8.1984858 20.5,9.33"/><path d="M23,8 C24.6568542,8 26,9.34314575 26,11 L26,12 L20,12 L20,11 C20,9.34314575 21.3431458,8 23,8 Z"/><path d="M23,16 L23,17"/><path d="M23,53 L23,54"/><path d="M16.50162,17.14584 L16.84364,18.08553"/><path d="M29.15636,51.91447 L29.49838,52.85416"/><path d="M10.78704,20.44516 L11.42982,21.2112"/><path d="M34.57018,48.7888 L35.21296,49.55484"/><path d="M6.54552,25.5 L7.41154,26"/><path d="M38.58846,44 L39.45448,44.5"/><path d="M4.28865,31.70068 L5.27346,31.87433"/><path d="M40.72654,38.12567 L41.71135,38.29932"/><path d="M4.28865,38.29932 L5.27346,38.12567"/><path d="M40.72654,31.87433 L41.71135,31.70068"/><path d="M6.54552,44.5 L7.41154,44"/><path d="M38.58846,26 L39.45448,25.5"/><path d="M10.78704,49.55484 L11.42982,48.7888"/><path d="M34.57018,21.2112 L35.21296,20.44516"/><path d="M16.50162,52.85416 L16.84364,51.91447"/><path d="M29.15636,18.08553 L29.49838,17.14584"/><circle cx="23" cy="35" r="3"/><polyline points="20.207 36.082 20.2 36.075 13.101 25.101 24.075 32.2 24.082 32.207"/><polyline points="25.793 33.918 25.8 33.925 32.899 44.899 21.925 37.8 21.918 37.793"/><polyline points="21 25 21 21 25 25 25 21"/></g></g></svg>