<svg xmlns="http://www.w3.org/2000/svg" xmlns:xlink="http://www.w3.org/1999/xlink" version="1.1" x="0px" y="0px" viewBox="0 0 75 93.75" enable-background="new 0 0 75 75" xml:space="preserve"><path d="M56.3677292,19.8153896c-0.1099854,0.5100098-2.6199951,12.7499981-10.1499634,20.2800274  c-3.4200439,3.4199219-6.8200073,5.8999023-9.9200439,7.2700195c1.9400024,2.6298828,3.5599976,5.6699219,2.0900269,7.1298828  c-0.3800049,0.3901367-0.8800049,0.5600586-1.4700317,0.5600586c-1.5599976,0-3.7199707-1.2099609-5.7999859-2.7600098  l-3.7999878,3.8000488c-0.1900024,0.1899414-0.4500122,0.2900391-0.710022,0.2900391  c-0.25,0-0.5099487-0.1000977-0.6999512-0.2900391c-0.3900146-0.3900146-0.3900146-1.0300293,0-1.4200439l3.6300049-3.6300049  c-0.7900391-0.6500244-1.5300293-1.3200684-2.2000122-1.9699707l-3.5200195,3.5200195  c-0.1900024,0.1899414-0.4500122,0.2900391-0.710022,0.2900391c-0.25,0-0.5099487-0.1000977-0.6999512-0.2900391  c-0.3900146-0.3900146-0.3900146-1.0300293,0-1.4200439l3.5099487-3.5100098  c-0.7099609-0.7299805-1.3699951-1.4699707-1.9699707-2.2000732l-3.6300049,3.630127  c-0.1900024,0.1899414-0.4500122,0.2900391-0.710022,0.2900391c-0.25,0-0.5099487-0.1000977-0.6999512-0.2900391  c-0.3900146-0.3900146-0.3900146-1.0300293,0-1.4200439l3.789978-3.789917  c-0.5499878-0.7401123-1.039978-1.4700928-1.4400024-2.1501465c-1.4699707-2.4899902-1.7199707-4.1699219-0.7600098-5.1298828  c1.4700317-1.460083,4.5100098,0.1599121,7.1400146,2.0999756c1.3599854-3.1099854,3.8499756-6.5100098,7.2700176-9.920042  c7.5299683-7.5400391,19.7599487-10.0500488,20.2799683-10.1499023c0.3200073-0.0700684,0.6699829,0.039917,0.9000244,0.2698975  C56.3277512,19.1453457,56.4277267,19.4853115,56.3677292,19.8153896z"/><text x="0" y="90" fill="#000000" font-size="5px" font-weight="bold" font-family="'Helvetica Neue', Helvetica, Arial-Unicode, Arial, Sans-serif">Created by Dinosoft Labs</text><text x="0" y="95" fill="#000000" font-size="5px" font-weight="bold" font-family="'Helvetica Neue', Helvetica, Arial-Unicode, Arial, Sans-serif">from the Noun Project</text></svg>